<svg xmlns="http://www.w3.org/2000/svg" viewBox="0 0 128 128">
<path fill="#00618A" d="M2.001 90.458h4.108V73.826h0.075l6.963 16.632h2.691l6.963-16.632h.075v16.632h4.108V68.672h-6.186l-6.296 15.143h-.075l-6.296-15.143H2.001v21.786zM31.959 90.458h4.034v-12.58l5.596 10.445h0.075l5.596-10.445v12.58h4.034V74.326h-4.108l-5.596 10.741-5.596-10.741h-4.034v16.132z"/>
<path fill="#E48E00" d="M61.449 80.538c0-1.98.316-3.513 1.581-4.576 1.265-1.063 3.004-1.58 5.123-1.58.89 0 1.876.079 2.766.316.89.237 1.66.554 2.312.949l-.79 3.004c-.554-.316-1.186-.554-1.897-.712-.711-.158-1.423-.237-2.134-.237-1.106 0-1.897.237-2.451.711-.554.475-.79 1.265-.79 2.372v3.163c0 1.106.237 1.897.79 2.372.554.475 1.344.712 2.451.712.711 0 1.423-.079 2.134-.237.711-.158 1.344-.396 1.897-.712l.79 3.004c-.633.396-1.423.712-2.312.949-.89.237-1.876.316-2.766.316-2.134 0-3.858-.475-5.123-1.423-1.265-1.028-1.581-2.609-1.581-4.702v-3.89z"/>
<path fill="#00618A" d="M78.035 84.428v-3.89c0-1.98.316-3.513 1.581-4.576 1.265-1.063 3.004-1.58 5.044-1.58 2.055 0 3.779.554 5.044 1.58 1.265 1.063 1.581 2.609 1.581 4.576v3.89c0 1.98-.316 3.592-1.581 4.655-1.265 1.063-3.004 1.581-5.044 1.581-2.055 0-3.779-.554-5.044-1.581-1.265-1.063-1.581-2.688-1.581-4.655zm4.034 0c0 1.106.237 1.897.79 2.372.554.475 1.265.712 2.213.712.949 0 1.66-.237 2.213-.712.554-.475.79-1.265.79-2.372v-3.89c0-1.106-.237-1.897-.79-2.372-.554-.475-1.265-.712-2.213-.712-.949 0-1.66.237-2.213.712-.554.475-.79 1.265-.79 2.372v3.89z"/>
<path fill="#00618A" d="M96.29 90.458h4.034V68.672H96.29v21.786z"/>
<path fill="#E48E00" d="M56.578 90.458c-1.749-.836-3.131-1.979-4.065-3.596l1.106-.633c1.897 3.163 5.834 4.267 10.266 4.267 4.431 0 9.65-1.818 9.65-5.993 0-3.779-2.925-5.36-6.783-6.265l-3.858-.87c-3.305-.745-5.993-2.292-5.993-5.614 0-4.267 4.113-6.186 8.026-6.186 3.145 0 6.344 1.186 8.026 3.462l-1.106.633c-1.502-2.055-4.19-3.083-6.92-3.083-3.145 0-6.42 1.423-6.42 5.123 0 2.766 2.213 4.267 5.202 4.94l3.858.87c3.7.87 7.574 2.372 7.574 6.977 0 4.99-5.36 7.006-11.211 7.006-2.766-.013-5.517-.554-7.352-1.038z"/>
</svg>
